<?xml version="1.0" encoding="UTF-8"?><svg id="Layer_2" xmlns="http://www.w3.org/2000/svg" viewBox="0 0 1700.08 1219.01"><g id="Layer_1-2"><g><path d="M.69,248.46c-5.09,34.94,18.37,68.42,52.58,75.56,37.78,7.89,71.65-17.98,78.67-52.55,3.59-17.68,10.75-34.6,21.75-48.81,4.67-6.03,8.17-13.15,10.06-21.09,.02-.09,.04-.18,.06-.27,3.68-15.83,9.77-31.04,19.45-44.04,4.36-5.86,7.64-12.7,9.44-20.29,7.24-30.48-12.04-61.12-42.81-67.15-27.84-5.46-55.84,12.29-63.15,39.98-.96,3.63-1.53,7.26-1.75,10.85-.65,10.6-4.67,20.84-12.26,28.19-6.49,6.29-11.13,13.89-13.87,21.99-4.19,12.4-13.51,22.12-24.81,28.53C16.79,209.14,3.87,226.61,.69,248.46" fill="#161b21"/><path d="M1666.19,519.78h-214.81c-19.66,0-35.6-15.94-35.6-35.6v-186.39c0-19.66,15.94-35.6,35.6-35.6h214.81" fill="#ffe6e8" stroke="#c1272d" stroke-miterlimit="10"/><path d="M1449.17,262.2h214.81c19.66,0,35.6,15.94,35.6,35.6v186.39c0,19.66-15.94,35.6-35.6,35.6h-214.81" fill="#ffe6e8" stroke="#c1272d" stroke-miterlimit="10"/><rect x="1546.36" y="471.07" width="22.68" height="4.2" fill="#f23f44"/><polygon points="1462.51 335.62 1466.62 335.62 1466.62 312.92 1490.81 312.92 1490.81 308.81 1462.51 308.81 1462.51 335.62" fill="#f23f44"/><polygon points="1641.66 308.07 1641.66 312.18 1664.36 312.18 1664.36 336.37 1668.47 336.37 1668.47 308.07 1641.66 308.07" fill="#f23f44"/><polygon points="1669.21 447.82 1665.1 447.82 1665.1 470.52 1640.92 470.52 1640.92 474.63 1669.21 474.63 1669.21 447.82" fill="#f23f44"/><polygon points="1466.62 452.76 1462.51 452.76 1462.51 479.58 1490.81 479.58 1490.81 475.47 1466.62 475.47 1466.62 452.76" fill="#f23f44"/><path d="M1544.63,362.63s-13.14,49.46-15.89,60.61c-.82,3.36-3.45,9.16-6.8,15.78-.02,.05-.05,.09-.08,.15-.72,1.45-1.06,2.78-1.23,4.02-.53,4.12,1.05,7.38-1.69,12.27l-.5,2.06h-26.01c3.04-9.02,6.89-20.49,9.98-29.74,2.59-7.8,4.63-14.01,5.18-15.8,1.61-5.37,7.51-22.74,12.52-34.28,1.75-4.02,8.49-7.99,14.45-10.86,5.34-2.54,10.07-4.21,10.07-4.21Z" fill="#2d2d2d"/><path d="M1591.17,390.75l-27.81-38.21-36.13-60.57s-8.3-53.65,36.13-52.66c44.44,.99,43.84,27.51,43.05,53.84-.79,26.33-17.82,24.35,1.39,60.98,19.2,36.62-16.63,36.62-16.63,36.62Z" fill="#161b21"/><path d="M1558.51,244.46s-30.09,4.75-31.28,47.51c-1.19,42.76,8.12,51.87,34.45,42.96,26.33-8.91,34.64-53.65,35.24-60.58,.59-6.93,2.18-35.04-38.41-29.89Z" fill="#eea886"/><path d="M1611.35,393.19c.11,14.71-16.81,49.91-19.42,60.79-.31,1.26-.64,2.43-.97,3.53h-82.12c-.43-5.07-.83-9.41-1.03-11.85-.65-8.04-8.79-25.35-8.52-33.41,.28-8.21,4.31-15.31,9.95-24.08,1.75-2.72,3.59-5.48,5.42-8.18,5.98-8.77,11.95-16.74,14.88-19.48,2.19-2.03,4.22-3.59,5.99-4.77h.01c3.69-2.47,6.17-3.26,6.17-3.26l25.86-4.14s16.12,5.84,25.4,8c0,0,18.1,2.65,18.37,36.85" fill="#e55353"/><path d="M1535.56,355.72l-14.99,23.63-13.84,21.8c.03-.12,.95-3.42,2.52-12.98,.3-1.82,.62-3.86,.96-6.14,.1-.68,.25-1.35,.44-2.01h0c5.92-13.65,24.23-23.95,24.9-24.29,.01,0,.02,0,.02,0Z" fill="#e55353"/><path d="M1578.6,315.67c-2.61,4.93-5.36,35.5-5.36,35.5,0,0-36.8,13.91-33.04,6.04,1.71-3.57,2.21-8.2,2.24-12.2,.03-3.15-.23-5.9-.41-7.43-.1-.8-.17-1.27-.17-1.27,0,0,39.34-25.58,36.73-20.65Z" fill="#eea886"/><path d="M1546.23,275.14s15.44,25.14,29.5,35.04c14.06,9.9,6.93,17.82,6.93,17.82,0,0,36.67-77.21,1.81-82.55-34.87-5.35-56.25-5.74-57.24,46.52,0,0,15.84-17.22,19-16.83Z" fill="#161b21"/><path d="M1563.02,334.43c-5.65,8.33-20.57,10.58-20.57,10.58h0c.03-3.15-.23-5.9-.41-7.43,9.59,1.85,20.98-3.15,20.98-3.15Z" fill="#a77860"/><path d="M1510.7,379.86h0s-.8,1.66-1.45,8.32l5.42-8.18s9.68-13.88,13-17.49c3.32-3.61,7.87-6.77,7.87-6.77,0,0-19.05,9.15-24.84,24.13Z" fill="#ebeeff"/><path d="M1614.55,390.75s-4.75-37.93-27.95-33.91c-23.2,4.02-2.66,43.72-2.66,43.72,0,0,23.62-9.26,30.61-9.8" fill="#e55353"/><path d="M1541.72,352.47s-17.34,26.67-11.47,29c5.87,2.33,37.65-3.11,51.16-28.44,0,0-20.2-10.36-39.69-.56Z" fill="#eea886"/><path d="M1614.55,390.76c-1.21,20.91-7.14,40.74-12.03,58.94-.71,2.64-1.39,5.25-2.03,7.81h-48.09c-.12-7.21-.09-13.57,.13-18.88,2.42-58.03,20.86-89.1,20.86-89.1,0,0,5.82,2.52,22.73,7.31,11.58,3.27,15.96,18.01,17.55,26.95" fill="#282828"/><path d="M1541.71,352.48c-.19,.33-3.36,5.65-7.15,14.35-5.7,13.06-12.81,33.74-13.41,56.53-.19,7.32-1.64,19.17-3.85,34.15h-9.6c-.97-12.53-3.26-22.54-5.28-29.74-1.31-4.67-2.52-8.16-3.17-10.37-3.06-10.41,6.73-24.28,10-29.24,3.29-4.95,11.13-27.74,32.47-35.68Z" fill="#282828"/><path d="M1604.05,457.51c0-1.68-.58-4.42-1.52-7.81-4.69-16.68-18.58-49.15-18.58-49.15,0,0-20.78-33.96-1.09-42.61,19.69-8.65,28.17,15.53,30.81,25.85" fill="#2d2d2d"/><path d="M543.69,238.74h327.78c32.38,0,58.67,26.29,58.67,58.67v327.78c0,32.38-26.29,58.67-58.67,58.67h-327.78c-32.38,0-58.67-26.29-58.67-58.67V297.41c0-32.38,26.29-58.67,58.67-58.67Z" fill="#ffe6e8" stroke="#c1272d" stroke-miterlimit="10"/><rect x="614.79" y="594.43" width="206.08" height="10.18" fill="#f23f44"/><rect x="614.79" y="618.26" width="147.7" height="10.18" fill="#f23f44"/><rect x="690.26" y="532.78" width="34.64" height="6.42" fill="#f23f44"/><path d="M811.41,284.98v6.27h36.94v34.67h6.27v-40.94h-43.22Zm-250.86,40.94h6.27v-34.67h36.94v-6.27h-43.22v40.94Zm287.81,178.9v34.68h-36.94v6.27h43.22v-40.96h-6.27Zm-281.53,0h-6.27v40.96h43.22v-6.27h-36.94v-34.68Z" fill="#f23f44"/><g><path d="M672.38,359.31s-.07,0-.1-.01c-1.03-.25-2.67-5.2-2.99-6.19-.08-.27-.24-.77-.46-1.46-1.28-3.96-4.29-13.25-3.12-16.81,.37-1.12,.94-1.77,1.71-1.93,1.64-.34,3.52,1.75,3.6,1.84l.04,.04v.06c.43,3.91,2.52,23.43,1.62,24.33-.09,.09-.19,.13-.31,.13Zm-4.58-26.06c-.1,0-.2,0-.3,.03-.62,.13-1.11,.7-1.43,1.68-1.13,3.44,1.95,12.98,3.12,16.57,.22,.69,.39,1.2,.46,1.47,.76,2.37,2.11,5.79,2.71,5.94,.01,0,.03,0,.05-.02,.57-.77-.74-15.08-1.71-23.96-.25-.27-1.65-1.7-2.9-1.7Z" fill="#eea886"/><path d="M706.42,281.45s25.2-2.64,34.29,21.7c9.08,24.34,17.63,32.31,18.7,45.1,4.33,51.72,28.48,40.02,21.69,69.83-6.79,29.81-11.5,34.32-11.5,34.32l-57.74-11.32-58.49,.19s22.88-11.43,17.79-35.77c-5.09-24.34-17.79-64.23-10.62-91.41,7.17-27.17,30.82-30.57,45.88-32.64Z" fill="#161b21"/><path d="M737.2,359.31c-.11,0-.22-.04-.31-.13-.9-.9,1.19-20.43,1.61-24.33v-.06s.05-.04,.05-.04c.08-.09,1.96-2.18,3.6-1.84,.77,.16,1.34,.81,1.71,1.93,1.17,3.56-1.83,12.84-3.12,16.81-.22,.69-.38,1.19-.46,1.45-.32,1-1.96,5.95-2.99,6.2-.04,0-.07,.01-.1,.01Zm1.67-24.36c-.97,8.88-2.28,23.19-1.71,23.96,.02,.02,.04,.02,.05,.02,.61-.15,1.95-3.56,2.72-5.94,.07-.26,.24-.77,.46-1.46,1.16-3.59,4.25-13.13,3.12-16.57-.32-.98-.81-1.55-1.43-1.68-1.31-.27-2.93,1.38-3.2,1.67Z" fill="#eea886"/><path d="M824.93,513.99h-35.98c-7.46-13.6-13.52-24.23-13.52-24.23,0,0-4.85,8.85-8.61,24.23h-121.12c-1.85-9.6-1.96-18.8-1.58-25.34,0,0-6.47,11.7-13.98,25.34h-40.69c10.8-20.22,31.03-57.04,35.63-61.84,5.77-6.05,39.24-29.18,63.14-36.73,23.91-7.55,37.49-.26,37.49-.26,0,0,24.54,4.42,47.24,13.42,8.92,3.54,33.57,49.05,51.99,85.41Z" fill="#ffb147"/><path d="M709.74,295.69s33.38,4.82,28.49,54.09c-4.89,49.28-34.35,45.37-36.32,45.32-1.97-.04-29.56,1.02-31.94-59.1,0,0-1.11-44.46,39.76-40.31Z" fill="#8e4f3a"/><path d="M724.57,386.36s-2.07,25.63,2.87,33.31c4.94,7.68-4.22,18.1-23.09,14.54-18.87-3.57-17.77-14.26-17.77-14.26,0,0,5.28-15.82,3.74-28.48-1.54-12.66,34.26-5.11,34.26-5.11Z" fill="#8e4f3a"/><path d="M705.92,313.54s15.6,16.4,22.84,24.7c7.24,8.3,8.08,24.34,8.08,24.34,0,0,12.2-14.91,7.1-32.27-5.1-17.36-17.18-51.13-47.75-40.76-30.57,10.38-31.7,56.04-28.11,78.68,0,0,13.72-49.98,37.84-54.7Z" fill="#161b21"/><path d="M736.29,417.41s-23.15,58.63-37.22,68.82c0,0-18.48-59.8-17.19-68.55,0,0,27.88-10.93,54.41-.27Z" fill="#8e4f3a"/><path d="M687.37,403.23s-41.27,36.72-30.56,59.62c9.14,19.55,41.55,7.56,36.2-12.92-5.35-20.48-5.65-46.7-5.65-46.7Z" fill="#161b21"/><path d="M692.77,392.87s14.22,6.72,28.07-3.21c0,0-3.84,7.94-14.03,9.07-10.19,1.13-14.03-5.86-14.03-5.86Z" fill="#633029"/></g><polygon points="393.55 1143.9 365.47 1148.85 353.96 1110.57 343.45 1075.43 375.82 1064.13 385.22 1106.36 393.55 1143.9" fill="#ffbf9d"/><polygon points="385.38 1107.22 354.09 1111.34 343.52 1075.82 375.86 1064.32 385.38 1107.22" isolation="isolate" opacity=".2"/><polygon points="206.1 1156.84 177.59 1156.84 172.91 1116.68 168.67 1080.03 202.52 1074.41 204.43 1118.03 206.1 1156.84" fill="#ffbf9d"/><polygon points="204.43 1118.39 172.91 1117.01 168.67 1080.19 202.52 1074.49 204.43 1118.39" isolation="isolate" opacity=".2"/><path d="M252.5,1209.72c-4.55-3.64-9.73-6.41-15.27-8.18h0s-16.66-16.32-24.94-65.73l-21.71-5.52c-7.55-1.78-15.41,1.34-19.67,7.82-.6,.88-1.06,1.84-1.36,2.86-1.08,5.31-1.82,10.68-2.21,16.08-2.08,16.75,.03,54.31,.03,54.31l3.92-.02,1.35-34.11c.51-11.58,9.45,1.94,12.06,14.39,2.61,12.45,8.08,25.68,33.46,26.14,29.6,.39,41.88-.84,34.36-8.05Z" fill="#f23f44"/><path d="M440.62,1206.93c-4.78-3.34-10.12-5.77-15.77-7.18h0s-17.68-15.21-29.12-63.98l-22.02-4.11c-7.65-1.29-15.29,2.34-19.13,9.08-.54,.91-.93,1.91-1.18,2.94-.74,5.37-1.13,10.78-1.17,16.19-.99,16.85,3.53,54.19,3.53,54.19l3.91-.28-.86-34.12c-.24-11.59,9.55,1.33,12.97,13.58,3.41,12.25,9.72,25.1,35.08,23.93,29.57-1.52,41.74-3.54,33.77-10.25Z" fill="#f23f44"/><path d="M379.46,1086.46l-30.64,5.4c-4.05,.71-8.06-1.51-9.58-5.33-45.2-113.14-77.53-207.87-100.48-286.74-12.6-43.37-23.12-81.94-30.66-116.17l1.42,126.33v275.88c0,4.8-3.89,8.69-8.69,8.69h-29.73c-4.12,0-7.67-2.89-8.51-6.92-111.89-537.2-31.77-659.91-31.77-659.91l136.4-22.71c5.19,20.36,9.11,53.66,11.42,76.64l6.15,45.25,53.32,275.41,48.4,274.1c.84,4.73-2.32,9.24-7.05,10.07Z" fill="#161b21"/><path d="M428.72,270.9l46.05-45.5s1.59-12.19,6.05-15.58c4.45-3.4,36.05-14.85,39.91-12.31,3.86,2.55,9.24,28.08,3.83,32.75-5.4,4.67-34.13,10.65-37.07,10.15l-49.81,59.14-8.95-28.64Z" fill="#ffbf9d"/><g><path d="M263.84,187.99c19.86,10.53,90.34,109.06,100.73,113.95,10.39,4.89,89.75-59.47,89.75-59.47l13.38,22.82s-65.12,91.99-101.92,87.54c-36.81-4.45-107.29-82.35-107.29-82.35l5.36-82.49Z" fill="#1a2e35"/><path d="M263.84,187.99c19.86,10.53,90.34,109.06,100.73,113.95,10.39,4.89,89.75-59.47,89.75-59.47l13.38,22.82s-65.12,91.99-101.92,87.54c-36.81-4.45-107.29-82.35-107.29-82.35l5.36-82.49Z" fill="#f23f44"/></g><polygon points="449.95 244.88 455.45 239.69 469.92 264.17 464.72 274.19 449.95 244.88" fill="#1a2e35"/><path d="M286.79,299.25c-16.47-15.71-28.31-28.76-28.31-28.76l1.25-19.59,6.19-19.01s27.78,25.6,20.88,67.35Z" isolation="isolate" opacity=".2"/><path d="M238.76,799.79c-12.6-43.37-22.42-81.94-29.97-116.17,0,0,.76-66.52,8.81-121.15,0,0,19.98,156.26,21.16,237.32Z" isolation="isolate" opacity=".2"/><g><path d="M270.5,396.56c5.56-98,3.08-151.88,.55-178.81-2.78-28.71-7.21-29.76-7.21-29.76,0,0-31.11-3.03-58.17-2.82-20.95,.72-41.86,2.91-62.47,6.58-19.56,3.25-38.82,7.92-57.75,13.95,3.16,9.02,6.03,17.58,8.68,25.63,3.54,10.62,6.7,20.49,9.57,29.67,5.35,17.2,9.53,32.08,12.86,45.4,10.41,41.22,12.6,67.61,14.79,102.18,0,0-34.24,89.47-40.92,155.12l113.51,12.24,15.58-65.66,15.58,67.88,63.43-22.26-28.04-159.35Z" fill="#1a2e35"/><path d="M270.5,396.56c5.56-98,3.08-151.88,.55-178.81-2.78-28.71-7.21-29.76-7.21-29.76,0,0-31.11-3.03-58.17-2.82-20.95,.72-41.86,2.91-62.47,6.58-19.56,3.25-38.82,7.92-57.75,13.95,3.16,9.02,6.03,17.58,8.68,25.63,3.54,10.62,6.7,20.49,9.57,29.67,5.35,17.2,9.53,32.08,12.86,45.4,10.41,41.22,12.6,67.61,14.79,102.18,0,0-34.24,89.47-40.92,155.12l113.51,12.24,15.58-65.66,15.58,67.88,63.43-22.26-28.04-159.35Z" fill="#f23f44"/></g><path d="M122.04,330.36c-1.51-7.48-3.29-15.45-5.48-23.99-1.38-5.43-2.89-11.13-4.58-17.18,4.32-15.18,8.78-3.32,8.78-3.32,0,0,4.45,18.36,1.28,44.49Z" isolation="isolate" opacity=".2"/><polygon points="159.8 219.08 216.19 319.98 229.54 211.67 203.95 243.75 159.8 219.08" fill="#f2f2f2"/><g><path d="M158.32,183.1c-25.2,5.92-32.83,26.15-30.05,44.51l18.36-6.12s33.94,11.68,58.98,32.27c0,0,13.91-25.6,27.26-33.94l18.92,2.23s-29.49-53.97-93.48-38.95Z" fill="#007cff"/><path d="M158.32,183.1c-25.2,5.92-32.83,26.15-30.05,44.51l18.36-6.12s33.94,11.68,58.98,32.27c0,0,13.91-25.6,27.26-33.94l18.92,2.23s-29.49-53.97-93.48-38.95Z" fill="#fff"/></g><path d="M204.09,191.13c-1.23-.67-2.69-1.26-4.24-1.81-3.21-2.53-7.11-8.64-6.92-23.48,.07-4.83,.53-10.56,1.61-17.38l-41.27-7.71s14.07,27.77,2.33,48.4c-4.04,1.8-6.45,4.34-6.01,7.7,3.09,23.85,54.35,46.9,54.35,46.9,0,0,25.04-38.95,.14-52.62Z" fill="#ffbf9d"/><path d="M194.55,148.46c-1.08,6.82-1.55,12.54-1.61,17.38-27.88,0-39.66-25.08-39.66-25.08l41.27,7.71Z" isolation="isolate" opacity=".2"/><g><path d="M170.61,57.81c27.78,.33,36.54,15.31,38.23,43.96,.97,16.47-.41,20.86-5.28,41.37-.87,3.65-3.29,6.75-6.64,8.44-7.42,3.74-14.8,6.52-28.84,3.26-47.04-10.94-43.6-97.57,2.53-97.02Z" fill="#ffbf9d"/><path d="M173.88,78.34s-7.79-1.11-12.1,4.06" fill="none" stroke="#1a2e35" stroke-linecap="round" stroke-linejoin="round" stroke-width=".69"/><path d="M194.08,77.41s4.93-1.76,11.04,2.42" fill="none" stroke="#1a2e35" stroke-linecap="round" stroke-linejoin="round" stroke-width=".69"/><path d="M144.39,113.71c-.13-4.47-4.66-12.1-12.98-11.29-8.62,.84-12.93,18.46,8.43,22.96,3.06,.65,4.83-2.34,4.56-11.67Z" fill="#ffbf9d"/></g><g><path d="M137.1,296.95l-2.06,113.66c-.05,2.72,2.26,4.89,4.97,4.67l74.85-5.95c2.34-.19,4.16-2.1,4.24-4.44l3.6-112.67c.09-2.72-2.19-4.92-4.9-4.74l-76.4,4.96c-2.39,.16-4.26,2.12-4.3,4.51Z" fill="#007cff"/><path d="M137.1,296.95l-2.06,113.66c-.05,2.72,2.26,4.89,4.97,4.67l74.85-5.95c2.34-.19,4.16-2.1,4.24-4.44l3.6-112.67c.09-2.72-2.19-4.92-4.9-4.74l-76.4,4.96c-2.39,.16-4.26,2.12-4.3,4.51Z" fill="#e08c3f"/><g><path d="M139.33,299.55l-2.06,113.66c-.05,2.72,2.26,4.89,4.97,4.67l74.85-5.95c2.34-.19,4.16-2.1,4.24-4.44l3.6-112.67c.09-2.72-2.19-4.92-4.9-4.74l-76.4,4.96c-2.39,.15-4.26,2.12-4.3,4.51Z" fill="#007cff"/><path d="M139.33,299.55l-2.06,113.66c-.05,2.72,2.26,4.89,4.97,4.67l74.85-5.95c2.34-.19,4.16-2.1,4.24-4.44l3.6-112.67c.09-2.72-2.19-4.92-4.9-4.74l-76.4,4.96c-2.39,.15-4.26,2.12-4.3,4.51Z" fill="#faa146"/></g><path d="M190.95,353.74c0,6.13-4.99,11.11-11.11,11.11s-11.15-4.99-11.15-11.11,4.99-11.15,11.15-11.15c.14,0,.28,0,.43,.04,.85,5.16,5.2,9.12,10.54,9.29,.11,.61,.14,1.21,.14,1.82Z" isolation="isolate" opacity=".2"/></g><path d="M72.09,389.39l54.76-34.52s4.18-11.56,9.26-13.92c5.08-2.36,38.4-6.75,41.62-3.43,3.22,3.32,2.98,29.41-3.31,32.8-6.28,3.39-35.62,3.05-38.39,1.93l-61.38,47.02-2.57-29.89Z" fill="#ffbf9d"/><g><path d="M85.45,205.69s35.78,51.97,30.58,96.49l-47.48,78.64,31.9-16.32,14.47,27.26s-36.72,56.57-83.46,43.22c-46.74-13.35,53.99-229.29,53.99-229.29Z" fill="#1a2e35"/><path d="M85.45,205.69s35.78,51.97,30.58,96.49l-47.48,78.64,31.9-16.32,14.47,27.26s-36.72,56.57-83.46,43.22c-46.74-13.35,53.99-229.29,53.99-229.29Z" fill="#f23f44"/></g><polygon points="97.11 363.01 115.29 396.77 119.37 387.12 104.9 359.67 97.11 363.01" fill="#1a2e35"/><g><path d="M906.8,369.08h470.96c38.15,0,69.12,30.97,69.12,69.12V1015.02c0,38.15-30.97,69.12-69.12,69.12h-470.96c-38.15,0-69.12-30.97-69.12-69.12V438.19c0-38.15,30.97-69.12,69.12-69.12Z" fill="#fff" stroke="#c1272d" stroke-miterlimit="10"/><rect x="1112.11" y="790.72" width="48.32" height="8.95" fill="#f23f44"/><g><rect x="928.67" y="872.71" width="281.15" height="17.33" fill="#f23f44"/><rect x="928.67" y="955.89" width="227.35" height="17.33" fill="#f23f44"/><rect x="928.67" y="914.3" width="133.28" height="17.33" fill="#f23f44"/><rect x="928.67" y="996.89" width="133.28" height="17.33" fill="#f23f44"/></g><path d="M1283.38,440.19v8.75h51.52v48.35h8.75v-57.1h-60.27Zm-349.86,57.1h8.75v-48.35h51.52v-8.75h-60.27v57.1Zm401.38,249.5v48.37h-51.52v8.75h60.27v-57.12h-8.75Zm-392.63,0h-8.75v57.12h60.27v-8.75h-51.52v-48.37Z" fill="#f23f44"/><g><path d="M1324.46,872.71c-37.37,0-67.77,30.4-67.77,67.77s30.4,67.77,67.77,67.77,67.77-30.4,67.77-67.77-30.4-67.77-67.77-67.77Z" fill="#008c50"/><polygon points="1368.06 924.08 1319.09 973.04 1288.49 942.43 1300 930.92 1319.09 950.01 1356.53 912.57 1368.06 924.08" fill="#fff"/></g><g><path d="M1324.46,710.8h-57.79c-3.8-27.67-8.48-59.26-8.48-59.26,0,0-2.34,26.07-5.18,59.26h-231.26c-2.11-29.85-4.65-52.18-5.57-52.64-1.33-.66-9.58,25.82-16.42,52.64h-62.6c16.1-69.36,46.13-180.64,63.5-187.31,24.72-9.51,125.5-40.57,125.5-40.57h57.52s102.21,29.16,111.71,60.86c7.56,25.27,24.24,108.58,29.07,167.01Z" fill="#e65353"/><path d="M1157.56,296.34s53.71,8.46,45.53,92.49c-8.18,84.03-55.58,77.14-58.75,77.06-3.17-.09-47.59,1.53-51.05-101.06,0,0-1.51-75.87,64.27-68.48Z" fill="#ffbc96"/><path d="M1182.63,441.14s-1.47,34.56,1.87,42.04c3.34,7.48-44.32,31.52-73.39,4.73,0,0,7.02-37.56,5.07-50.87-1.95-13.31,66.45,4.1,66.45,4.1Z" fill="#ffbc96"/><path d="M1203.92,365.09s5.88-6.28,8.04,.08c2.16,6.36-9.12,34.78-8.39,36.05,0,0-1.07,2.47-2.49,1.11-1.41-1.36,2.83-37.24,2.83-37.24Z" fill="#eea987"/><path d="M1093.9,364.03s-5.76-6.39-8.04-.08c-2.28,6.32,8.45,34.94,7.69,36.21,0,0,1.03,2.49,2.46,1.16,1.44-1.33-2.11-37.28-2.11-37.28Z" fill="#eea987"/><path d="M1203.9,377.98l-7.69,10.28s.22-22.54-1.02-26.07c-1.23-3.53-3.12-14.33-4.15-16.87-1.03-2.55-46.12-15.18-85.95,3.69,0,0,1.75,16.2-2.07,17.65-3.82,1.44-1.95,26.39-1.95,26.39l-6.32-7.13s-9.68-64.65-7.29-71.39c2.39-6.74,10-47.25,91.71-23.2,0,0,25.47-5.4,30.58,12.19,5.11,17.59-5.87,74.47-5.87,74.47Z" fill="#161b21"/><path d="M1184.5,483.18s12.12,2.59-38.59,51.18c0,0-35.96-39.78-34.8-46.45,1.17-6.66,73.39-4.73,73.39-4.73Z" fill="#ffbc96"/><polygon points="1145.91 534.36 1159.75 558.02 1200.8 488.32 1183.02 475.93 1145.91 534.36" fill="#b84343"/><polygon points="1145.91 534.36 1112.33 480.93 1093.29 493.16 1127.43 558.02 1145.91 534.36" fill="#b84343"/><path d="M1135.5,682.4c.41,7.88,.6,17.55,.62,28.4h-1.9c-.02-10.81-.21-20.46-.62-28.31-3.12-59.28,11.25-131.41,11.34-148.32l1.86,.37c-.09,16.9-14.41,88.83-11.29,147.86Z" fill="#b84343"/><path d="M1121.18,455.99s12.76,13.49,30.78,9.89c18.02-3.6,26.03-11.85,26.03-11.85,0,0-7.12,17.84-27.95,19.48-20.84,1.63-28.86-17.52-28.86-17.52Z" fill="#c78d71"/></g></g><path d="M182.06,.59c-11.97,2.17-21.84,9.43-27.77,19.21-6.21,10.25-16.36,17.14-27.56,21.18-.13,.05-.26,.1-.4,.14-12.41,4.64-21.1,16.73-21.51,30.1-.05,1.77,.02,3.5,.22,5.19,.65,5.58,.44,11.33-1.42,16.63-.87,2.47-1.17,5.14-.76,7.88,1.42,9.52,10.71,16,20.77,14.47,4.17-.63,7.79-2.56,10.51-5.27,2.5-2.48,5.76-3.89,9.22-4.44,7.56-1.2,14.16-4.94,19.07-10.35,6.85-7.53,16.47-12.25,26.59-12.16,2.13,.02,4.3-.13,6.48-.46,22.88-3.48,38.52-25.37,34.4-48.55C226.04,12.49,203.5-3.3,182.06,.59Z" fill="#161b21"/><path d="M109.76,255.38s10.28,32.23,5.62,47.87" fill="none" stroke="#333" stroke-miterlimit="10"/><path d="M273.18,237.49s.6,71.99,.38,81.52c-.21,9.54-3.06,77.54-3.06,77.54,0,0,26.21,148.47,28.04,159.35" fill="none" stroke="#333" stroke-miterlimit="10"/><rect x="31.81" y="1216.87" width="1521.17" height="2.14" fill="#161b21"/><g><path d="M588.63,608.34c0,18.44-15,33.43-33.43,33.43s-33.43-14.99-33.43-33.43,15-33.42,33.43-33.42,33.43,14.99,33.43,33.42Z" fill="#f23f44"/><g><polygon points="573.16 596.57 562.81 606.91 559.98 609.74 554.3 615.41 549.63 620.08 543.99 625.79 538.28 620.08 548.62 609.74 557.13 601.23 567.48 590.89 573.16 596.57" fill="#fff"/><polygon points="559.98 609.74 554.34 615.45 554.3 615.41 559.98 609.74" fill="#fff"/></g><g><polygon points="567.49 625.78 557.15 615.44 554.32 612.61 548.65 606.93 543.98 602.26 538.27 596.62 543.98 590.9 554.32 601.25 562.83 609.76 573.17 620.11 567.49 625.78" fill="#fff"/><polygon points="554.32 612.61 548.61 606.97 548.65 606.93 554.32 612.61" fill="#fff"/></g></g><g><path d="M1635.47,447.35c0,15.26-12.41,27.67-27.67,27.67s-27.67-12.41-27.67-27.67,12.41-27.66,27.67-27.66,27.67,12.41,27.67,27.66Z" fill="#f23f44"/><g><polygon points="1622.65 437.61 1614.09 446.17 1611.75 448.51 1607.05 453.2 1603.18 457.07 1598.51 461.8 1593.78 457.07 1602.35 448.51 1609.39 441.47 1617.96 432.91 1622.65 437.61" fill="#fff"/><polygon points="1611.75 448.51 1607.08 453.24 1607.05 453.2 1611.75 448.51" fill="#fff"/></g><g><polygon points="1617.96 461.79 1609.41 453.22 1607.06 450.88 1602.37 446.18 1598.51 442.32 1593.78 437.65 1598.51 432.92 1607.06 441.48 1614.1 448.53 1622.66 457.09 1617.96 461.79" fill="#fff"/><polygon points="1607.06 450.88 1602.33 446.21 1602.37 446.18 1607.06 450.88" fill="#fff"/></g></g><line x1="608.48" y1="689.96" x2="599.67" y2="681.26" fill="none"/><polyline points="770.4 1042.44 770.4 1215.4 562.91 1215.4 562.91 1042.44 770.4 1042.44" fill="#ffd7d7"/><rect x="547.63" y="1030.2" width="238.05" height="36.32" fill="#ffafae"/></g></g></svg>